PathFileType	4	(X/Y/Z)	62_2_79_p0_0-571_filt_butterworth.trc
DataRate	CameraRate	NumFrames	NumMarkers	Units	OrigDataRate	OrigDataStartFrame	OrigNumFrames
59.0	59.0	5	27	m	59.0	499	571
Frame#	Time	RHip			RKnee			RAnkle			RBigToe			RSmallToe			RHeel			LHip			LKnee			LAnkle			LBigToe			LSmallToe			LHeel			Neck			Head			Nose			RShoulder			RElbow			RWrist			RThumb			RIndex			RPinky			LShoulder			LElbow			LWrist			LThumb			LIndex			LPinky			
		X1	Y1	Z1	X2	Y2	Z2	X3	Y3	Z3	X4	Y4	Z4	X5	Y5	Z5	X6	Y6	Z6	X7	Y7	Z7	X8	Y8	Z8	X9	Y9	Z9	X10	Y10	Z10	X11	Y11	Z11	X12	Y12	Z12	X13	Y13	Z13	X14	Y14	Z14	X15	Y15	Z15	X16	Y16	Z16	X17	Y17	Z17	X18	Y18	Z18	X19	Y19	Z19	X20	Y20	Z20	X21	Y21	Z21	X22	Y22	Z22	X23	Y23	Z23	X24	Y24	Z24	X25	Y25	Z25	X26	Y26	Z26	X27	Y27	Z27	
499	8.457627118644067	0.3836357522920524	0.2600554210225443	0.6969570578221281	0.36816276309088936	-0.12328638752224963	0.8027477430897535	0.31818543841388763	-0.5006991209996962	0.9016164218171651	0.2731197792218671	-0.5149015175665034	0.7218890343151178	0.33592416915028095	-0.521959837447032	0.7539414442407958	0.31722029345667346	-0.5655742431664783	0.9861443500599687	0.20016111985992732	0.28423337812083527	0.7789187004797067	0.17878516715560522	-0.08614959188686933	0.7820291861328292	0.17574296129058498	-0.5021402312985798	0.9344468747358479	0.11340876644064295	-0.505597125015728	0.7656466597648868	0.08115363023826316	-0.5047245897823394	0.8349101141137514	0.19327258839633077	-0.5480524924878789	0.9899826156367048	0.3126957564462116	0.8433098898907907	0.6985173449222671	0.3020201787814275	1.0887409534644683	0.5561893558400388	0.2871080123589649	0.9306248749770072	0.5216549518558139	0.45753836041136287	0.7688039892765246	0.6297241736921007	0.519460674672968	0.5072523188868724	0.6868215615542412	0.4437241694081275	0.2528954295829592	0.6236894448900183	0.3729575906030512	0.14691435413001674	0.6641043208579188	0.3788418954956979	0.13465893605828716	0.6637776143772887	0.41954309898253017	0.14533065398738584	0.6336349529599747	0.15025097311313002	0.7843656700035353	0.7162094163888806	0.0671464749278462	0.5666677276691053	0.7108860400897007	0.20113185086119212	0.506086605489725	0.586204862628296	0.30477395418951403	0.45259419824100666	0.5646474506042536	0.3056640040889265	0.4481696984386343	0.5485860257968266	0.23383256986041473	0.4251331419771989	0.5188872729972702	
500	8.474576271186441	0.3835414679991648	0.2623447203738103	0.6954585789188059	0.3686610318722282	-0.12390512883124444	0.8037588078139385	0.3188896612853503	-0.5013952038788001	0.9030474379355782	0.273051045444676	-0.5147042661511774	0.7221837436327195	0.3361865854261583	-0.5218401068848206	0.7537481001754293	0.3173602007370483	-0.5655589367845834	0.9865689991324607	0.19932781655606865	0.2860400929305669	0.7750314367798317	0.1787028772748607	-0.08621454816274648	0.7820597868015605	0.17537589075062296	-0.5024380028222677	0.9342729392021566	0.1134316925089049	-0.5059492654650175	0.7655226429542231	0.08167043555436501	-0.5050511069264361	0.8355723724243216	0.19291173515813356	-0.5483160771160224	0.9891212635194022	0.31265869550873393	0.8433327824012418	0.6997393125664683	0.30201272022344405	1.0887406946506208	0.5561978035641257	0.28712845037575935	0.9306248041655794	0.5216990635211085	0.4576213823513572	0.7688699200686994	0.6295318978939909	0.5197902118935729	0.5082305768360055	0.6871597455956886	0.449759876366319	0.2526291371410727	0.6298190040424272	0.3769746292333911	0.1460913343031462	0.6635223099794894	0.3841746300583335	0.13479555826695877	0.6613309709960722	0.42584296236609886	0.14480681649006713	0.6353179400389559	0.1501469803258968	0.7843434610630288	0.7177994174081844	0.06560603048724982	0.5662966950342425	0.7081508666407301	0.19639716843773491	0.5063672227886195	0.5846590491069006	0.30205489924006634	0.4537837606423626	0.5624713413268209	0.30314041887897797	0.44963051155973194	0.547070248224265	0.22892315593030627	0.4275577607602956	0.511532332005125	
501	8.491525423728813	0.3836154910319793	0.2645433184890794	0.6941333950036559	0.3691238378638436	-0.12449580406929334	0.8045389457960954	0.31945647714703224	-0.5021576637325743	0.9042247633080354	0.27299187688353127	-0.5145193933398206	0.7225089141526952	0.3364338702072244	-0.5221474304520167	0.7535774890194903	0.3175753002559036	-0.5657786160651772	0.9871266114485495	0.19858240638544125	0.2876801365553921	0.7713048075008078	0.1786573356975797	-0.08632836172901709	0.7820993029863765	0.1749777130082473	-0.5027127084518321	0.9340739081554464	0.11344866862254249	-0.5060706833070142	0.7656635536412172	0.08259228149401002	-0.5059869331325154	0.8370315265871506	0.1924408277428406	-0.5484424697217106	0.9879137628970501	0.3126583604224591	0.8433465544625133	0.7000195857931801	0.30200481896569875	1.0887381417015054	0.5562279948213912	0.2871575582449049	0.9306291192766758	0.5217354494343176	0.45755665290276226	0.768878708738349	0.6292115350597722	0.5188436830636372	0.5094270646456541	0.6845137513012511	0.4555104284159557	0.25185728084388426	0.6356745170796092	0.3820664313348388	0.14493274594312394	0.6634659469726092	0.3902833876945171	0.13473165066254256	0.6583908061869582	0.4323484570293201	0.14327798485455553	0.6388963117320666	0.15018517761831757	0.7843382291840697	0.7178625794528957	0.06444587862179292	0.5659600152841991	0.7057651785478676	0.19226902434834103	0.5065833894060083	0.5827457732127101	0.2992627521541974	0.45524862807872224	0.5604799374438519	0.30074766845352136	0.4510774704158769	0.5455982091083682	0.22515809713236648	0.4291161448188805	0.5059762922456528	
502	8.508474576271187	0.38386364902595865	0.2663801574356885	0.6930316858198302	0.36954517019987587	-0.12499351163899547	0.8050366852944342	0.319842746292707	-0.5029386675234976	0.9050435901868328	0.2728696466028727	-0.5142990206415641	0.7225643755808825	0.33640001724016944	-0.5230127525863237	0.7537887689863457	0.3178246145450223	-0.5661975558769583	0.9877327276815386	0.19790214241053727	0.28898908546075774	0.7678252868546043	0.17865849479875603	-0.08649703821605098	0.7821474055480678	0.17453291773800397	-0.5029541101026476	0.9338464381624079	0.11346119799566712	-0.5061385837287794	0.7660090932023018	0.08371212173628206	-0.5073383375261581	0.8388409637405786	0.1918571751665948	-0.5484862966332011	0.9864838645260271	0.3126791589436511	0.8433536899195093	0.6997193643204593	0.30199667781695705	1.0887318632301892	0.5562719087991167	0.28719553434223527	0.9306309225276813	0.521645698246494	0.4574752864552037	0.7688589150044025	0.6290550702749587	0.5170750743930296	0.5104214315473254	0.6796327691234484	0.46083065162003406	0.25076502809859613	0.6403831132220261	0.38790561132189016	0.1437756661421128	0.6634160404230504	0.3964788332614432	0.1346811194632184	0.654551510038043	0.43886920076327873	0.14115405043879845	0.6433338010005724	0.1503576791136677	0.7843494775105193	0.7163926971139203	0.06383035567599782	0.5656970479420197	0.7043683651509569	0.18863872249241764	0.5068302162302839	0.5802025023375609	0.29608998612212933	0.45706985903729536	0.5581576887822048	0.2981380299848921	0.4524351252440337	0.5441762676391253	0.22242445137587014	0.43015316195318315	0.5021420184288989	
503	8.525423728813559	0.38423647207536465	0.2677703953168503	0.6921149800309014	0.3699209242209871	-0.12535592777299848	0.8053174572876491	0.320053639362674	-0.5037067911936345	0.9054871076172513	0.27260636496332835	-0.5139808867048523	0.7221206132322224	0.33598981683525886	-0.5243382183063185	0.7546168980314809	0.3180659761201186	-0.5666974597842824	0.9883122943197633	0.19725952397709767	0.28989640439250536	0.7646113587320921	0.17871142652380326	-0.08674364247351185	0.7822118399215202	0.1740233781163551	-0.5031560736190677	0.933593128407769	0.11350802630859069	-0.5061774688614294	0.7661439596454017	0.08471275514490165	-0.5085992201185486	0.840055213473613	0.1912097190760077	-0.5484669867207349	0.9850443786013712	0.312699137411477	0.8433586762523716	0.6993461360672268	0.3019712493929996	1.088716288677564	0.5562913218164814	0.2872349863402952	0.930625993926331	0.5213724609157381	0.4574432561957107	0.768833560622962	0.6291908276566858	0.5151423747222929	0.5108602892691921	0.673898041600796	0.4656491654666577	0.249626842998636	0.643491630815615	0.3939714028149254	0.1429063016122697	0.6625758358547715	0.4022528709411798	0.1348749483225318	0.6496337385394609	0.4452462446178559	0.1389238893244512	0.6477189058360174	0.15062304607630517	0.7843723388228045	0.7137428315918377	0.0638863853165807	0.5654270051452105	0.7044407247449131	0.18528339662489476	0.507173293334775	0.5769968458758796	0.2922074665954383	0.45928146705394335	0.5549981643416316	0.294847884259822	0.45370320777167394	0.542345690829477	0.22065774134043498	0.4309294573654823	0.4997262273618891	
